<svg width="224" height="112" viewBox="0 0 224 112" fill="none" xmlns="http://www.w3.org/2000/svg">
<path d="M169 0.00976562C199.467 0.54327 224 25.4061 224 56C224 86.5939 199.467 111.456 169 111.989V112H56C25.0721 112 0 86.9279 0 56C0 25.0721 25.0721 0 56 0H169V0.00976562ZM2.01074 57C2.544 86.3619 26.5107 110 56 110H97.1162C73.72 103.566 56.4534 82.3345 56.0098 57H2.01074ZM113 110H153.116C132.742 104.397 117.016 87.5731 113 66.5898V110ZM58.0107 57C58.538 86.0293 81.9707 109.462 111 109.989V57H58.0107ZM114.011 57C114.538 86.0293 137.971 109.462 167 109.989V57H114.011ZM169 109.989C198.362 109.456 222 85.4893 222 56C222 26.5107 198.362 2.54301 169 2.00977V109.989ZM56 2C26.5107 2 2.544 25.6381 2.01074 55H56.0098C56.4534 29.6655 73.72 8.43412 97.1162 2H56ZM167 2.00977C137.971 2.53697 114.538 25.9707 114.011 55H167V2.00977ZM111 2.00977C81.9707 2.53697 58.538 25.9707 58.0107 55H111V2.00977ZM113 45.4092C117.016 24.4264 132.743 7.60286 153.116 2H113V45.4092Z" fill="white"/>
</svg>
