<svg width="32" height="32" viewBox="0 0 32 32" fill="none" xmlns="http://www.w3.org/2000/svg">
<path d="M10.2768 8.39124C10.5267 7.86906 10.6667 7.28422 10.6667 6.66669C10.6667 4.45755 8.8758 2.66669 6.66666 2.66669C4.45753 2.66669 2.66666 4.45755 2.66666 6.66669C2.66666 8.87583 4.45753 10.6667 6.66666 10.6667C7.28419 10.6667 7.86904 10.5268 8.39122 10.2769L10.4379 12.3235C9.73983 13.3774 9.33333 14.6412 9.33333 16C9.33333 17.3588 9.73983 18.6226 10.4379 19.6765L8.69072 21.4237C8.47042 21.3648 8.23888 21.3334 8 21.3334C6.52724 21.3334 5.33333 22.5273 5.33333 24C5.33333 25.4728 6.52724 26.6667 8 26.6667C9.47276 26.6667 10.6667 25.4728 10.6667 24C10.6667 23.7611 10.6353 23.5296 10.5763 23.3093L12.3235 21.5622C13.3774 22.2602 14.6412 22.6667 16 22.6667C17.3588 22.6667 18.6226 22.2602 19.6765 21.5622L21.7232 23.6088C21.4733 24.131 21.3333 24.7158 21.3333 25.3334C21.3333 27.5425 23.1242 29.3334 25.3333 29.3334C27.5425 29.3334 29.3333 27.5425 29.3333 25.3334C29.3333 23.1242 27.5425 21.3334 25.3333 21.3334C24.7158 21.3334 24.131 21.4733 23.6088 21.7232L21.5621 19.6765C22.2602 18.6226 22.6667 17.3588 22.6667 16C22.6667 14.6412 22.2602 13.3774 21.5621 12.3235L23.3093 10.5764C23.5296 10.6353 23.7611 10.6667 24 10.6667C25.4728 10.6667 26.6667 9.47278 26.6667 8.00002C26.6667 6.52726 25.4728 5.33335 24 5.33335C22.5272 5.33335 21.3333 6.52726 21.3333 8.00002C21.3333 8.2389 21.3647 8.47044 21.4237 8.69075L19.6765 10.4379C18.6226 9.73986 17.3588 9.33335 16 9.33335C14.6412 9.33335 13.3774 9.73986 12.3235 10.4379L10.2768 8.39124Z" fill="white"/>
</svg>
