<svg width="32" height="32" viewBox="0 0 32 32" fill="none" xmlns="http://www.w3.org/2000/svg">
<path d="M24 12C26.9455 12 29.3334 9.61216 29.3334 6.66665C29.3334 3.72113 26.9455 1.33331 24 1.33331C21.0545 1.33331 18.6667 3.72113 18.6667 6.66665C18.6667 7.16961 18.7363 7.6563 18.8664 8.11763L11.7887 12.2463C10.8222 11.2708 9.48169 10.6666 8.00002 10.6666C5.0545 10.6666 2.66669 13.0545 2.66669 16C2.66669 18.9455 5.0545 21.3333 8.00002 21.3333C9.48169 21.3333 10.8222 20.7291 11.7887 19.7537L18.8664 23.8823C18.7363 24.3437 18.6667 24.8304 18.6667 25.3333C18.6667 28.2788 21.0545 30.6666 24 30.6666C26.9455 30.6666 29.3334 28.2788 29.3334 25.3333C29.3334 22.3878 26.9455 20 24 20C22.5184 20 21.1778 20.6042 20.2113 21.5796L13.1336 17.451C13.2637 16.9896 13.3334 16.5029 13.3334 16C13.3334 15.497 13.2637 15.0103 13.1336 14.549L20.2113 10.4203C21.1778 11.3958 22.5184 12 24 12Z" fill="white"/>
</svg>
