<svg width="112" height="224" viewBox="0 0 112 224" fill="none" xmlns="http://www.w3.org/2000/svg">
<path d="M56 0C86.5968 -1.33743e-06 111.462 24.5382 111.991 55.0088L112 55V169L111.991 168.991C111.462 199.462 86.5968 224 56 224C25.4032 224 0.537754 199.462 0.00878906 168.991L0 169V55L0.00878906 55.0088C0.537754 24.5382 25.4032 5.41655e-06 56 0ZM110 70.8828C103.482 94.5867 81.7747 112 56 112C30.2253 112 8.5183 94.5867 2 70.8828V168C2 197.823 26.1766 222 56 222C85.8234 222 110 197.823 110 168V70.8828ZM56 2C26.1766 2.00001 2 26.1766 2 56H110C110 26.1766 85.8234 2 56 2Z" fill="white"/>
</svg>
