<svg width="32" height="32" viewBox="0 0 32 32" fill="none" xmlns="http://www.w3.org/2000/svg">
<path d="M17.3334 11.832C19.6337 11.24 21.3334 9.15183 21.3334 6.66671C21.3334 3.72119 18.9455 1.33337 16 1.33337C13.0545 1.33337 10.6667 3.72119 10.6667 6.66671C10.6667 9.15183 12.3664 11.24 14.6667 11.832V14.6667H10.6667C8.45755 14.6667 6.66669 16.4576 6.66669 18.6667V20.1681C4.36638 20.7601 2.66669 22.8483 2.66669 25.3334C2.66669 28.2789 5.0545 30.6667 8.00002 30.6667C10.9455 30.6667 13.3334 28.2789 13.3334 25.3334C13.3334 22.8483 11.6337 20.7601 9.33335 20.1681V18.6667C9.33335 17.9303 9.93031 17.3334 10.6667 17.3334H21.3334C22.0697 17.3334 22.6667 17.9303 22.6667 18.6667V20.1681C20.3664 20.7601 18.6667 22.8483 18.6667 25.3334C18.6667 28.2789 21.0545 30.6667 24 30.6667C26.9455 30.6667 29.3334 28.2789 29.3334 25.3334C29.3334 22.8483 27.6337 20.7601 25.3334 20.1681V18.6667C25.3334 16.4576 23.5425 14.6667 21.3334 14.6667H17.3334V11.832Z" fill="white"/>
</svg>
